<svg width="66" height="66" viewBox="0 0 66 66" fill="none" xmlns="http://www.w3.org/2000/svg">
<path d="M39 29H38V27C38 24.24 35.76 22 33 22C30.24 22 28 24.24 28 27V29H27C25.9 29 25 29.9 25 31V41C25 42.1 25.9 43 27 43H39C40.1 43 41 42.1 41 41V31C41 29.9 40.1 29 39 29ZM33 38C31.9 38 31 37.1 31 36C31 34.9 31.9 34 33 34C34.1 34 35 34.9 35 36C35 37.1 34.1 38 33 38ZM36.1 29H29.9V27C29.9 25.29 31.29 23.9 33 23.9C34.71 23.9 36.1 25.29 36.1 27V29Z" fill="white"/>
<circle cx="33" cy="33" r="32" stroke="white" stroke-width="2"/>
</svg>
