<svg width="66" height="66" viewBox="0 0 66 66" fill="none" xmlns="http://www.w3.org/2000/svg">
<path d="M43 32H38.83L42.07 28.76L40.66 27.34L36 32H34V30L38.66 25.34L37.24 23.93L34 27.17V23H32V27.17L28.76 23.93L27.34 25.34L32 30V32H30L25.34 27.34L23.93 28.76L27.17 32H23V34H27.17L23.93 37.24L25.34 38.66L30 34H32V36L27.34 40.66L28.76 42.07L32 38.83V43H34V38.83L37.24 42.07L38.66 40.66L34 36V34H36L40.66 38.66L42.07 37.24L38.83 34H43V32Z" fill="white"/>
<circle cx="33" cy="33" r="32" stroke="white" stroke-width="2"/>
</svg>
