<svg width="66" height="66" viewBox="0 0 66 66" fill="none" xmlns="http://www.w3.org/2000/svg">
<path d="M42 29C42 24 38 20 33 20C28 20 24 24 24 29C24 32.1 25.6 34.9 28 36.5V39C28 40.3 28.8 41.4 30 41.8V42C30 43.7 31.3 45 33 45C34.7 45 36 43.7 36 42V41.8C37.2 41.4 38 40.3 38 39V36.5C40.4 34.9 42 32.1 42 29ZM26 29C26 25.1 29.1 22 33 22C36.9 22 40 25.1 40 29C40 32.5 37.4 35.4 34 35.9V33.4L35.7 31.7C36.1 31.3 36.1 30.7 35.7 30.3C35.3 29.9 34.7 29.9 34.3 30.3L33 31.6L31.7 30.3C31.3 29.9 30.7 29.9 30.3 30.3C29.9 30.7 29.9 31.3 30.3 31.7L32 33.4V35.9C28.6 35.4 26 32.5 26 29ZM33 43C32.4 43 32 42.6 32 42H34C34 42.6 33.6 43 33 43ZM36 39C36 39.6 35.6 40 35 40H31C30.4 40 30 39.6 30 39V37.5C30.9 37.8 31.9 38 33 38C34.1 38 35.1 37.8 36 37.5V39Z" fill="white"/>
<circle cx="33" cy="33" r="32" stroke="white" stroke-width="2"/>
</svg>
