<svg width="688" height="580" fill="none" xmlns="http://www.w3.org/2000/svg"><path opacity=".4" d="M624.607 31.41c-144.775-68.893-208.638 119.5-308.469 150.496-99.744 45.347-195.923-7.73-255.31 37.768-94.134 72.12-52.818 198.289 7.446 251.376 86.42 76.13 239.998 48.73 398.738-33.588C665.894 334.329 751.55 91.817 624.607 31.41Z" fill="#98C3E8"/><path opacity=".2" d="M143.5 106.5c5 12.5-10 32-31.5 38.5-18.5 5.593-36.5 5-41.5-8-4.423-11.5 9.5-24 25.5-30.5s42.5-12.5 47.5 0ZM307 81c-3.891-9.94 9.816-33.134 26.802-38.201 14.617-4.36 28.309-14.635 32.198-4.299 3.44 9.144-7.091 29.825-19.74 34.915C333.612 78.505 310.891 90.94 307 81Zm-11.208 492.215c-3.891-9.939 8.024-25.349 25.01-30.416 14.617-4.361 28.812-3.814 32.701 6.522 3.441 9.144-7.595 19.004-20.243 24.094s-33.576 9.74-37.468-.2Zm175.781-50.665c-8.095-19.03 17.706-61.315 53-71 30.369-8.334 79.409 8.71 87.499 28.5 7.157 17.505-39.719 14.61-65.998 24.343-26.279 9.733-66.407 37.186-74.501 18.157Z" fill="#98C3E8"/></svg>