<svg width="137" height="232" fill="none" xmlns="http://www.w3.org/2000/svg"><path d="m117 230-1.5-5 8-1.5c3.833 2 11.2 6.4 10 8-.4.8-11.167-.667-16.5-1.5Zm-40.5-47 4.5 7.5c-.333 5.167-1.4 15.3-3 14.5-1.6-.8-6.667-13.667-9-20l7.5-2Z" fill="#D06262"/><path d="M50.328 137.993C45 132.458 40.156 122.024 38.401 117.5c5.128-2.481 16.523-8.148 21.083-10.978 4.56-2.829 13.209-9.248 16.963-12.104 2.19 1.974 8.563 6.844 16.534 10.53 20.471 9.665 32.164 22.147 36.204 33.324 3.233 8.941-10.01 22.177-17.534 27.722-4.359-7.408-6.982-10.404-12.15-17.46l1.756-8.196-10.324-3.067c1.526 2.036 6.528 8.739 14.325 19.269 14.07 17.585 18.942 47.632 19.62 60.457-2.625.576-9.088 1.639-13.941 1.282-.573-6.229-8.378-20.068-15.83-32.32-1.517 1.814-3.618 3.983-4.842 4.095-6.195-1.84-8.114-9.965-8.299-13.798l4.682-3.921a850.7 850.7 0 0 1-1.792-2.872c-7.663-12.35-27.866-24.551-34.527-31.47Z" fill="#1F3F68"/><path d="M78.347 93.239c-14.534 11.212-44.62 31.318-48.685 22.052-5.082-11.583-4.086-11.675-6.896-14.931-2.81-3.257-3.497-10.725-4.768-13.621-.639-1.455-5.787-7.822-9.903-15.659 0 0-.123-.227-.332-.641-2.922-5.702-5.23-12.119-4.85-17.962.29-8.563 6.803-14.086 6.803-14.086 3.882-4.138 7.523-4.833 8.784-4.721l.023.015c3.035 2.064 7.522 5.115 9.111 4.97C29.228 38.507 31.5 35.5 33 34c7.606.807 9.929-1.141 15.874-.33C56.205 34.67 76 45 91.5 17.5c1.54.36 5.01 1.729 7.5 1.5-8.5 25-16 32.781-23 35.231-5.372 1.88-9.605 2.405-12.948 2.37-.614 3.262-1.43 8.623-2.788 14.09 2.794 5.116 5.748 9.814 8.068 11.92 6.026 5.472 12.831 8.491 10.015 10.628Z" fill="#fff"/><path d="m78.062 122.89 13.415 14.833 9.781 2.615-.584 4.573c2.245-2.884 5.123-9.81-1.328-14.439-6.451-4.628-16.877-6.983-21.284-7.582Zm8.563 49.423 8.299 13.798-1.357 1.631c-1.225-2.398-4.441-4.613-7.16-6.873-2.174-1.808-2.63-4.947-2.586-6.29l2.804-2.266ZM48.067 97.028C33.87 95.522 16.604 80.675 9.746 73.44 25.604 87.546 44.032 91.374 49.87 89.331 54.54 87.696 58.12 75.527 60 70.5l3.8 6.503c.67 7.303-1.535 21.531-15.733 20.025Zm-5.1-28.151c-3.148.575-11.293-6.325-14.948-9.671C41.474 69.013 41.5 64 58.5 52c-.739 1.072-8 15.5-15.534 16.877Z" fill="#000" fill-opacity=".2"/><path d="M63.5 54.5c-1.713-.344-3.204-.924-5-2.5l1.5-3.5c-.167-.833-.4-2.7 0-3.5.4-.8 2-1.667 2.5-2l-.5 2.5 2.5-3 4 3.5-.5 3.5-3 1.5-1.5 3.5ZM100 14l-1 5c-1.6.4-5.833-.833-7.5-1.5C92 16 93.6 12 94 10c.4-2 4.167-4.167 6-5h2l-2 3.5V14Z" fill="#F2994A"/><path d="M16 23.5c.8 1.6 3 5 4 6.5.666-1.333 1.6-4.3 0-5.5-1.6-1.2-3-3.167-3.5-4 .5-.333 1.8-1 3-1-.8-6 3.333-8.167 5.5-8.5l8.5-.5.5 2.5c3.166-3 8.9-9.5 6.5-11.5-3-2.5-12 4-18 4s-8.5 3-10 6 2.5 10 3.5 12Z" fill="#316099"/><path d="M27.5 39c-1.6 0-6.167-3.167-9-5 1.333-.667 2-3.2 2-4 0-1 1-5 0-5.5s-4-2.5-4-3.5c0-.8 2-1 3-1-.333-1.667-.4-5.5 2-7.5s9-2.167 12-2c.167.667.8 3.5 2 9.5s-1.5 8.833-3 9.5L33 34c-1.167 1.5-3.9 5-5.5 5Z" fill="#F2994A"/><path d="m123.5 223.5-.5-6c-3.531.946-5.629 1.113-9.5 1l2 6.5 8-1.5Zm-42.5-33 6-2c-2.678-3.077-3.58-4.832-4.5-8l-6 2.5 4.5 7.5Z" fill="#98C3E8"/></svg>