<svg width="280" height="190" fill="none" xmlns="http://www.w3.org/2000/svg"><rect opacity=".8" x="13" width="266.284" height="189.301" rx="5" fill="url(#a)"/><path d="M13 5a5 5 0 0 1 5-5h71.983v189.301H18a5 5 0 0 1-5-5V5Z" fill="#fff"/><circle cx="25" cy="12" r="4" fill="#FA9595"/><circle cx="38" cy="12" r="4" fill="#FDF397"/><circle cx="50" cy="12" r="4" fill="#C1FEBB"/><path opacity=".4" fill-rule="evenodd" clip-rule="evenodd" d="M22 106h58v7H22v-7Zm0 14h58v7H22v-7Zm39 16H22v7h39v-7Z" fill="#5A98D0"/><path opacity=".1" fill-rule="evenodd" clip-rule="evenodd" d="M199 25h58v7h-58v-7Zm0 14h58v7h-58v-7Zm39 16h-39v7h39v-7Z" fill="#000"/><g filter="url(#b)"><rect x="5" y="26" width="81" height="50" rx="5" fill="#56CCF2"/></g><path d="M29.344 48.136c-.656-.896-1.584-1.344-2.8-1.344-1.104 0-2.032.4-2.816 1.216-.784.816-1.168 1.808-1.168 2.992 0 1.168.384 2.176 1.168 2.992.784.816 1.712 1.216 2.816 1.216 1.216 0 2.144-.448 2.8-1.36V55h1.728v-8h-1.728v1.136Zm-4.336 4.704c-.48-.496-.72-1.104-.72-1.84s.24-1.344.72-1.824c.48-.496 1.088-.736 1.808-.736s1.328.24 1.808.736c.48.48.72 1.088.72 1.824s-.24 1.344-.72 1.84c-.48.48-1.088.72-1.808.72s-1.328-.24-1.808-.72Zm13.07-9.248c-2.368-.144-3.616 1.056-3.616 3.248V47h-1.216v1.664h1.216V55h1.728v-6.336h1.888V47H36.19v-.16c0-1.168.624-1.696 1.888-1.584v-1.664ZM41.618 47h-1.729v8h1.728v-4.032c0-.816.24-1.408.736-1.76.496-.368 1.072-.528 1.728-.48v-1.872c-1.2 0-2.032.496-2.464 1.488V47Zm6.172-1.52c.448-.448.448-1.12.016-1.552a1.083 1.083 0 0 0-1.568 0c-.432.432-.432 1.104 0 1.552.448.432 1.12.432 1.552 0Zm.096 9.52v-8h-1.728v8h1.728Zm9.142-6.864c-.656-.896-1.584-1.344-2.8-1.344-1.104 0-2.032.4-2.816 1.216-.784.816-1.168 1.808-1.168 2.992 0 1.168.384 2.176 1.168 2.992.784.816 1.712 1.216 2.816 1.216 1.216 0 2.144-.448 2.8-1.36V55h1.728v-8h-1.728v1.136Zm-4.336 4.704c-.48-.496-.72-1.104-.72-1.84s.24-1.344.72-1.824c.48-.496 1.088-.736 1.808-.736s1.328.24 1.808.736c.48.48.72 1.088.72 1.824s-.24 1.344-.72 1.84c-.48.48-1.088.72-1.808.72s-1.328-.24-1.808-.72Zm13.086-6.048c-1.136 0-1.952.416-2.48 1.232V47h-1.727v8h1.727v-4.288c0-1.552.817-2.304 2.032-2.304 1.105 0 1.793.656 1.793 1.856V55h1.727v-4.912c0-2.048-1.231-3.296-3.072-3.296Z" fill="#fff"/><rect x="107" y="18" width="79" height="77" rx="5" fill="#EB5757"/><g clip-path="url(#c)"><path d="M138 43v28l22-14-22-14Z" fill="#fff"/></g><g filter="url(#d)"><rect x="107" y="108" width="154" height="63" rx="5" fill="#6FCF97"/></g><path d="M120.5 153c9.5-6.5 13.5-15 31.5-15s19.58 10 30.5 10c13 0 25.5-19.5 39.5-19.5s17.5 10 25 10.5" stroke="#000" stroke-opacity=".1" stroke-width="2" stroke-linecap="round" stroke-linejoin="round"/><path d="M120 153.5c9.5-6.5 12-25.5 30-25.5s22.08 16.5 33 16.5c13 0 24.5-27 38.5-27s18.5 21 26 21.5" stroke="#fff" stroke-width="2" stroke-linecap="round" stroke-linejoin="round"/><defs><filter id="b" x="0" y="21" width="101" height="70" filterUnits="userSpaceOnUse" color-interpolation-filters="sRGB"><feFlood flood-opacity="0" result="BackgroundImageFix"/><feColorMatrix in="SourceAlpha" values="0 0 0 0 0 0 0 0 0 0 0 0 0 0 0 0 0 0 127 0" result="hardAlpha"/><feOffset dx="5" dy="5"/><feGaussianBlur stdDeviation="5"/><feColorMatrix values="0 0 0 0 0.0627451 0 0 0 0 0.439216 0 0 0 0 0.694118 0 0 0 0.2 0"/><feBlend in2="BackgroundImageFix" result="effect1_dropShadow_0_1614"/><feBlend in="SourceGraphic" in2="effect1_dropShadow_0_1614" result="shape"/></filter><filter id="d" x="97" y="102" width="174" height="83" filterUnits="userSpaceOnUse" color-interpolation-filters="sRGB"><feFlood flood-opacity="0" result="BackgroundImageFix"/><feColorMatrix in="SourceAlpha" values="0 0 0 0 0 0 0 0 0 0 0 0 0 0 0 0 0 0 127 0" result="hardAlpha"/><feOffset dy="4"/><feGaussianBlur stdDeviation="5"/><feColorMatrix values="0 0 0 0 0.435294 0 0 0 0 0.811765 0 0 0 0 0.592157 0 0 0 0.2 0"/><feBlend in2="BackgroundImageFix" result="effect1_dropShadow_0_1614"/><feBlend in="SourceGraphic" in2="effect1_dropShadow_0_1614" result="shape"/></filter><linearGradient id="a" x1="19.393" y1="69.155" x2="324.893" y2="102.655" gradientUnits="userSpaceOnUse"><stop offset=".127" stop-color="#fff"/><stop offset=".972" stop-color="#fff" stop-opacity=".8"/></linearGradient><clipPath id="c"><path fill="#fff" transform="translate(122 33)" d="M0 0h48v48H0z"/></clipPath></defs></svg>