<svg width="141" height="139" fill="none" xmlns="http://www.w3.org/2000/svg"><path d="M133.522 66.763a65.546 65.546 0 0 1-5.648 26.668 65.95 65.95 0 0 1-16.026 22.121 67.736 67.736 0 0 1-5.987 4.83 66.136 66.136 0 0 1-8.434 5.135h-.03c-.627.327-1.263.637-1.904.938a64.66 64.66 0 0 1-6.592 2.685c-1.54.509-3.12 1.019-4.715 1.437a67.28 67.28 0 0 1-28.215 1.319 64.085 64.085 0 0 1-3.304-.631l-.924-.209a66.065 66.065 0 0 1-14.513-5.218c-.39-.193-.774-.392-1.159-.591a66.339 66.339 0 0 1-25.48-23.475A65.74 65.74 0 0 1 .507 68.738a65.7 65.7 0 0 1 8.07-33.575 66.266 66.266 0 0 1 24.018-24.95A66.863 66.863 0 0 1 66.006.7a66.884 66.884 0 0 1 33.681 8.518 66.3 66.3 0 0 1 24.758 24.226 65.713 65.713 0 0 1 9.077 33.32Z" fill="url(#a)"/><path d="M84.432 71.542c4.237 4.33 16.58 21.184 16.58 21.184l-7.582 11.041-6.818-21.933-2.18-10.292Z" fill="url(#b)"/><path d="M97.396 125.553c-.626.326-1.262.637-1.904.938a64.348 64.348 0 0 1-6.592 2.685c-1.539.509-3.119 1.019-4.714 1.436a67.263 67.263 0 0 1-28.216 1.32 63.041 63.041 0 0 1-3.304-.632c-4.001 2.741-7.695 5.059-10.142 6.114l.2-1.696.831-7.098 1.924-16.512 7.623-7.322-17.14 1.32s1.801-24.812 8.83-29.917c7.028-5.106 14.4-9.68 14.4-9.68a9.65 9.65 0 0 0 2.868 1.268 22.67 22.67 0 0 0 7.495.759c3.006-.138 6.012-2.914 6.156-3.057 0 0 4.72.932 8.72 6.083a24.382 24.382 0 0 1 4.213 8.896c.985 3.765 2.734 12.559 4.724 23.182 1.304 6.837 2.673 14.419 4.028 21.913Z" fill="url(#c)"/><path d="m101.012 92.747 7.316 8.514 25.727-25.363.975-5.192 5.13-4.427-2.283 6.75v8.794s-19.843 31.946-25.312 33.591c-6.397 1.931-19.125-11.657-19.125-11.657l7.572-11.01Z" fill="url(#d)"/><path d="m74.306 104.389 5.966 14.266 7.71-3.292-5.653-13.96-8.023 2.986Z" fill="#7E57C2"/><path d="M82.616 113.606c-.96.784-2.39.601-4.166.692a10.242 10.242 0 0 0-6.464 2.517c-2.385 1.992-9.054 7.205-15.723 11.963-1.211.861-2.422 1.712-3.591 2.548-4.002 2.741-7.695 5.059-10.142 6.113a6.132 6.132 0 0 1-2.053.597c-3.426.086-4.16-7.047-4.37-12.738-.067-1.89-.082-3.617-.118-4.865-.144-4.993 0-14.266 0-14.266l17.14-1.325-1.817 11.79-.318 2.084v.015l5.13-1.885.16-.056 18.211-6.72 1.257-2.155.8 2.037h.077l7.798-1.018s.133 3.087-1.811 4.672Z" fill="url(#e)"/><path d="M78.68 39.25c-.446-1.212-.83-2.038-.943-2.282v-.061s-.395.968-3.37.733c-2.976-.234-3.961-1.701-3.961-1.701s.934 3.179-2.611 4.54c-3.412 1.314-4.756.463-4.848.402.18.193 2.847 3.026 1.077 5.273-1.831 2.328-5.95 1.87-5.95 1.87v.03a35.867 35.867 0 0 0 1.738 3.409c.339.58.672 1.116 1.026 1.615v.036a11.618 11.618 0 0 0 3.591 3.653 17.485 17.485 0 0 1-5.237 9.756c.928.482 1.886.905 2.867 1.269 1.914.718 4.484 1.432 6.777 1.233a10.747 10.747 0 0 0 6.885-3.526l-1.175-4.478-1.057-4.035c9.552-2.42 6.926-12.947 5.192-17.736Zm-5.724 17.883.169-.04.272-.077c-.396.17-.814.284-1.242.337.22-.056.447-.118.683-.189l.118-.03Z" fill="url(#f)"/><path d="M84.432 36.774c-3.94 3.597-5.643 2.583-5.75 2.486v-.01c-.447-1.212-.832-2.038-.94-2.282l-.025-.061s-.4.968-3.376.733c-2.975-.234-3.955-1.701-3.955-1.701s.934 3.179-2.611 4.54c-3.417 1.314-4.76.463-4.848.402.18.188 2.847 3.021 1.077 5.268-1.831 2.328-5.95 1.875-5.95 1.875v.025a35.822 35.822 0 0 0 1.738 3.414c.343.577.684 1.116 1.026 1.615v.036s-1.405 2.746-3.914 2.69c-2.508-.056-2.565-2.548-2.565-2.548s-1.775 3.18-7.259.117c-5.484-3.062-1.826-7.5-1.826-7.5s-3.889-2.954-3.889-7.382c0-4.427 6.054-7.795 6.054-7.795s-2.165-5.14 1.487-7.974c3.653-2.832 9.142-.912 9.142-.912s-.108-6.577 5.484-6.47c5.592.107 6.86 3.505 6.86 3.505s5.027-3.862 10.003-.224 2.93 9.981 2.93 9.981 5.216 4.427 1.107 8.172Z" fill="url(#g)"/><path opacity=".15" d="M74.587 61.006c-2.385-.75-6.628-3.608-6.628-3.608a16.01 16.01 0 0 0 5.012-.265l.17-.04.328-.097h.046l1.072 4.01ZM55.416 89.547l-2.313 15.285-1.816 11.79-4.227 3.49 9.198-3.317s-2.386-6.766-.842-27.248Zm-2.76 41.753c1.093.24 2.19.449 3.304.632.056-1.044.16-2.099.303-3.154l-3.607 2.522Z" fill="#000"/><defs><linearGradient id="a" x1="67.273" y1="7.865" x2="65.029" y2="138.076" gradientUnits="userSpaceOnUse"><stop stop-color="#fff" stop-opacity="0"/><stop offset="1" stop-color="#64B5F6" stop-opacity=".6"/></linearGradient><linearGradient id="b" x1="79.409" y1="67.165" x2="97.559" y2="99.279" gradientUnits="userSpaceOnUse"><stop stop-color="#E57373"/><stop offset="1" stop-color="#AD1457"/></linearGradient><linearGradient id="c" x1="28086.2" y1="39725.5" x2="26174.2" y2="49226.9" gradientUnits="userSpaceOnUse"><stop stop-color="#E57373"/><stop offset="1" stop-color="#AD1457"/></linearGradient><linearGradient id="d" x1="147.122" y1="78.94" x2="97.589" y2="107.833" gradientUnits="userSpaceOnUse"><stop stop-color="#FFF8E1"/><stop offset="1" stop-color="#FFCC80"/></linearGradient><linearGradient id="e" x1="21597.4" y1="22250.6" x2="18926.7" y2="20437.4" gradientUnits="userSpaceOnUse"><stop stop-color="#FFF8E1"/><stop offset="1" stop-color="#FFCC80"/></linearGradient><linearGradient id="f" x1="83.703" y1="44.439" x2="56.661" y2="55.652" gradientUnits="userSpaceOnUse"><stop stop-color="#FFF8E1"/><stop offset="1" stop-color="#FFCC80"/></linearGradient><linearGradient id="g" x1="77.486" y1="15.146" x2="46.053" y2="57.911" gradientUnits="userSpaceOnUse"><stop stop-color="#FFB74D"/><stop offset="1" stop-color="#F4511E"/></linearGradient></defs></svg>