<svg width="267" height="190" fill="none" xmlns="http://www.w3.org/2000/svg"><rect opacity=".8" width="266.284" height="189.301" rx="5" fill="url(#a)"/><path d="M0 5a5 5 0 0 1 5-5h71.983v189.301H5a5 5 0 0 1-5-5V5Z" fill="#fff"/><circle cx="12" cy="12" r="4" fill="#FA9595"/><circle cx="25" cy="12" r="4" fill="#FDF397"/><circle cx="37" cy="12" r="4" fill="#C1FEBB"/><path opacity=".4" fill-rule="evenodd" clip-rule="evenodd" d="M9 106h58v7H9v-7Zm0 14h58v7H9v-7Zm39 16H9v7h39v-7Z" fill="#5A98D0"/><path opacity=".1" fill-rule="evenodd" clip-rule="evenodd" d="M186 25h58v7h-58v-7Zm0 14h58v7h-58v-7Zm39 16h-39v7h39v-7Z" fill="#000"/><rect x="94" y="18" width="79" height="77" rx="5" fill="#EB5757"/><g clip-path="url(#b)"><path d="M125 43v28l22-14-22-14Z" fill="#fff"/></g><g filter="url(#c)"><rect x="94" y="108" width="154" height="63" rx="5" fill="#6FCF97"/></g><path d="M107.5 153c9.5-6.5 13.5-15 31.5-15s19.58 10 30.5 10c13 0 25.5-19.5 39.5-19.5s17.5 10 25 10.5" stroke="#000" stroke-opacity=".1" stroke-width="2" stroke-linecap="round" stroke-linejoin="round"/><path d="M107 153.5c9.5-6.5 12-25.5 30-25.5s22.08 16.5 33 16.5c13 0 24.5-27 38.5-27s18.5 21 26 21.5" stroke="#fff" stroke-width="2" stroke-linecap="round" stroke-linejoin="round"/><defs><linearGradient id="a" x1="6.393" y1="69.155" x2="311.893" y2="102.655" gradientUnits="userSpaceOnUse"><stop offset=".127" stop-color="#fff"/><stop offset=".972" stop-color="#fff" stop-opacity=".8"/></linearGradient><clipPath id="b"><path fill="#fff" transform="translate(109 33)" d="M0 0h48v48H0z"/></clipPath><filter id="c" x="84" y="102" width="174" height="83" filterUnits="userSpaceOnUse" color-interpolation-filters="sRGB"><feFlood flood-opacity="0" result="BackgroundImageFix"/><feColorMatrix in="SourceAlpha" values="0 0 0 0 0 0 0 0 0 0 0 0 0 0 0 0 0 0 127 0" result="hardAlpha"/><feOffset dy="4"/><feGaussianBlur stdDeviation="5"/><feColorMatrix values="0 0 0 0 0.435294 0 0 0 0 0.811765 0 0 0 0 0.592157 0 0 0 0.2 0"/><feBlend in2="BackgroundImageFix" result="effect1_dropShadow_0_1614"/><feBlend in="SourceGraphic" in2="effect1_dropShadow_0_1614" result="shape"/></filter></defs></svg>