<svg width="66" height="66" fill="none" xmlns="http://www.w3.org/2000/svg"><path d="M42 29c0-5-4-9-9-9s-9 4-9 9c0 3.1 1.6 5.9 4 7.5V39c0 1.3.8 2.4 2 2.8v.2c0 1.7 1.3 3 3 3s3-1.3 3-3v-.2c1.2-.4 2-1.5 2-2.8v-2.5c2.4-1.6 4-4.4 4-7.5Zm-16 0c0-3.9 3.1-7 7-7s7 3.1 7 7c0 3.5-2.6 6.4-6 6.9v-2.5l1.7-1.7c.4-.4.4-1 0-1.4-.4-.4-1-.4-1.4 0L33 31.6l-1.3-1.3c-.4-.4-1-.4-1.4 0-.4.4-.4 1 0 1.4l1.7 1.7v2.5c-3.4-.5-6-3.4-6-6.9Zm7 14c-.6 0-1-.4-1-1h2c0 .6-.4 1-1 1Zm3-4c0 .6-.4 1-1 1h-4c-.6 0-1-.4-1-1v-1.5c.9.3 1.9.5 3 .5s2.1-.2 3-.5V39Z" fill="#fff"/><circle cx="33" cy="33" r="32" stroke="#fff" stroke-width="2"/></svg>