<svg width="179" height="214" fill="none" xmlns="http://www.w3.org/2000/svg"><path d="M.39 5c-1.116 4.364.397 6.88 1.588 7.5 2.362 1.23 5 2.77 5 2.77s16.428 28.144 21.19 30.159C33.724 47.779 46.422 49 46.422 49l5.556-11.111S39.279 35.11 33.724 33.92c-3.744-.802-20.238-18.65-20.238-18.65l3.174-5.556h-5.952C6.343 6.54 3.978 0 3.978 0S1.152 2.02.39 5Z" fill="url(#a)"/><path d="M65.478 55.5c-2-2-13.5-5.167-19-6.5l5.5-11c2.166 0 8.5-.5 16.5-2.5 10-2.5 13.5-11.5 25-2 9.2 7.6 25.166 40.833 32 56.5-10.747 10.243-17.884 13.569-32 16.5-.834-1.667-3.3-7.3-6.5-16.5-4-11.5-16.5-11.5-18.5-15.5s-.5-16.5-3-19Z" fill="url(#b)"/><path d="M101.478 169c-3.6-8-3.667-46-5-63.5 12.193-2.397 18.633-5.484 29-16 0 0 17 8 16 26.5s6.52 27.841 11 34c4 5.5 13.5 17.167 18.5 25l-5 9.5c-5.5-5.833-21.6-17.7-30-24.5-8.4-6.8-11.167-23.833-12.5-33-.834 9.667-5 27.4-3 33 2 5.6 23.5 22.5 32 31l-3 8.5c-14.5-6.833-44.4-22.5-48-30.5Z" fill="url(#c)"/><path d="M59.477 21.5c.4-1.6-.166-6.333.5-8 4.8.8 7.5 4.167 8.5 5.5 1-.167 2.435-.631 3 .5.5 1 0 3-1.5 4.5l3.5 9.5c-1.658 1.077-2.668 1.439-4.5 2 1-2.5.5-4.5 0-5.5-3.6 2.8-5 2.667-6.5 2.5l-1.5-6.5-2.5.5c.5-.833.6-3.4 1-5Z" fill="url(#d)"/><path d="M68.477 19c-2-2.8-6.833-4.833-9-5.5-4-3-2-9.5 7.5-12.5s13.5 5 15.5 7 3 8.5 12 12.5 8.5-1 14-1 8 3.5 7 6.5-1.5 6.5 4.5 10.5.5 9.5 0 15.5-8.5 3-17 3-7 0-8.5-5.5-4-7.5-7-9-10-.5-11.5-2c-1.2-1.2-4.5-10.167-6-14.5.667-1 1.9-3.3 1.5-4.5-.4-1.2-2.167-.833-3-.5Z" fill="#F2994A"/><path d="m49.477 79.5 24-1.5c2.8.4 7.5 3.833 9.5 5.5-.666 1.5-2.6 4.5-5 4.5s-20-3-28.5-4.5h-2V76l2 3.5Z" fill="url(#e)"/><path d="M47.477 87V70h-8.5v17h8.5Z" fill="#F2C94C"/><path d="M165.978 213.5c-2.4-.4-12.167-9.667-16.5-14l3-8.5c2 .833 6.2 2.3 7 3.5 1 1.5 9.5 19.5 6.5 19Zm12-11c-1.2-2-8.5-11.667-12-18l5-9.5c2.333 2 2.5 2 5 5.5 1.162 1.627 3.5 24.5 2 22Z" fill="#5A98D0"/><path opacity=".2" d="m126.478 112.5-3 15c.5 5.5 3.5 19 8.5 28.5-6-19-4-33.167-5.5-43.5Z" fill="#000"/><defs><linearGradient id="a" x1="59.735" y1="12.576" x2="7.964" y2="46.395" gradientUnits="userSpaceOnUse"><stop stop-color="#FFF8E1"/><stop offset="1" stop-color="#FFCC80"/></linearGradient><linearGradient id="b" x1="85.978" y1="29.241" x2="85.978" y2="106.5" gradientUnits="userSpaceOnUse"><stop stop-color="#AF6CED"/><stop offset="1" stop-color="#5E199D"/></linearGradient><linearGradient id="c" x1="133.728" y1="89.5" x2="133.728" y2="199.5" gradientUnits="userSpaceOnUse"><stop stop-color="#EB5757"/><stop offset="1" stop-color="#872727"/></linearGradient><linearGradient id="d" x1="75.716" y1="19.146" x2="57.595" y2="26.755" gradientUnits="userSpaceOnUse"><stop stop-color="#FFF8E1"/><stop offset="1" stop-color="#FFCC80"/></linearGradient><linearGradient id="e" x1="88.276" y1="79.08" x2="76.596" y2="100.359" gradientUnits="userSpaceOnUse"><stop stop-color="#FFF8E1"/><stop offset="1" stop-color="#FFCC80"/></linearGradient></defs></svg>