<svg width="648" height="490" fill="none" xmlns="http://www.w3.org/2000/svg"><mask id="a" style="mask-type:alpha" maskUnits="userSpaceOnUse" x="0" y="0" width="648" height="490"><path d="M586.962 12.944C446.39-49.13 390.042 133.48 295.141 166.024c-94.447 46.315-188.023-1.94-243.777 43.392-88.376 71.856-45.503 191.801 13.642 241.07 84.818 70.653 231.336 40.058 381.384-43.393C634.38 302.539 710.22 67.373 586.962 12.944Z" fill="#98C3E8"/></mask><g mask="url(#a)"><path d="M-105.083-80.598h805.162v681.484h-805.162V-80.598Z" fill="url(#b)"/><path d="M-3.491 136.467c73.827 37.23 156.489 141.437 156.489 191.195 0 61.207-129.777 155.016-189.302 208.231l507.959 32.812c-18.089-80.979-63.761-261.005-35.967-300.989 35.967-51.742 181.519-39.122 263.128-29.657L720.902 7.742C681.148 24.36 592.177 72.105 543.589 59.485c-44.974-11.682-131.249-62.05-167.847-94.02" stroke="#fff" stroke-opacity=".2" stroke-width="15"/><path d="M186.441 79.677c20.193 105.167 75.09 297.96 133.142 227.792 72.566-87.709 129.987-201.29 184.254-126.2 43.413 60.071 107.27 178.574 133.773 230.316" stroke="#fff" stroke-opacity=".2" stroke-width="15"/><path fill-rule="evenodd" clip-rule="evenodd" d="M414 141a8 8 0 1 1-16 0 8 8 0 0 1 16 0ZM83 314a8 8 0 1 0 0-16 8 8 0 0 0 0 16Zm174 102a8 8 0 1 0 0-16 8 8 0 0 0 0 16Zm274-118a8 8 0 1 0 0-16 8 8 0 0 0 0 16Z" fill="#fff" fill-opacity=".6"/><circle cx="53" cy="393" r="18" stroke="#fff" stroke-opacity=".4" stroke-width="8"/><circle cx="633" cy="116" r="18" stroke="#fff" stroke-opacity=".4" stroke-width="8"/><circle cx="383" cy="349" r="18" stroke="#fff" stroke-opacity=".4" stroke-width="8"/></g><defs><linearGradient id="b" x1="355.616" y1="-126.319" x2="317.792" y2="544.507" gradientUnits="userSpaceOnUse"><stop stop-color="#D1ECFF"/><stop offset="1" stop-color="#1070B1"/></linearGradient></defs></svg>