<?xml version="1.0" standalone="no"?>
<!DOCTYPE svg PUBLIC "-//W3C//DTD SVG 20010904//EN"
 "http://www.w3.org/TR/2001/REC-SVG-20010904/DTD/svg10.dtd">
<svg version="1.0" xmlns="http://www.w3.org/2000/svg"
 width="287.000000pt" height="287.000000pt" viewBox="0 0 287.000000 287.000000"
 preserveAspectRatio="xMidYMid meet">
<metadata>
Created by potrace 1.14, written by Peter Selinger 2001-2017
</metadata>
<g transform="translate(0.000000,287.000000) scale(0.100000,-0.100000)"
fill="#000000" stroke="none">
<path d="M805 2380 c-22 -5 -55 -11 -73 -14 -79 -15 -228 -82 -322 -146 -73
-50 -191 -168 -242 -242 -56 -84 -112 -207 -139 -308 -18 -67 -23 -113 -23
-220 0 -74 2 -151 6 -170 53 -306 244 -563 523 -703 147 -73 263 -98 450 -93
155 4 265 29 378 86 70 36 76 36 123 9 45 -25 198 -77 256 -87 56 -9 292 -9
343 1 248 46 482 200 621 409 108 162 157 317 158 508 1 152 -8 220 -41 319
-94 282 -312 507 -588 607 -11 4 -24 9 -30 11 -5 2 -48 12 -95 22 -67 16 -115
19 -225 17 -157 -4 -262 -28 -387 -91 -39 -19 -70 -29 -75 -24 -11 11 -175 79
-204 84 -11 2 -28 6 -37 9 -47 14 -88 18 -207 21 -71 2 -148 -1 -170 -5z"/>
</g>
</svg>
